<svg width="456" height="549" viewBox="0 0 456 549" version="1.1" xmlns="http://www.w3.org/2000/svg" xmlns:xlink="http://www.w3.org/1999/xlink">
<title>Group</title>
<desc>Created using Figma</desc>
<g id="Canvas" transform="translate(616 188)">
<g id="Group">
<g id="Union">
<use xlink:href="#path0_fill" transform="matrix(0.931282 0.3643 -0.3643 0.931282 -538 -188)" fill="#FFFFFF" fill-opacity="0.15"/>
</g>
<g id="Union">
<use xlink:href="#path1_fill" transform="matrix(0.931282 0.3643 -0.3643 0.931282 -303.713 107)" fill="#FFFFFF" fill-opacity="0.15"/>
</g>
</g>
</g>
<defs>
<path id="path0_fill" fill-rule="evenodd" d="M 131.993 0C 109.959 0 90.4592 9.40399 78.8438 23.7907C 94.4014 37.0545 104.116 55.5116 104.116 76.0039L 104.116 119.515C 132.415 113.76 153.464 92.2153 153.464 66.5298L 153.464 0L 131.993 0ZM 21.4709 21.4748L 0 21.4748L 0 66.5298C 0 96.6366 28.8625 121.059 64.4126 121.059L 67.5804 121.059L 67.5804 148.894C 54.1544 152.832 44.3497 165.212 44.3497 179.869C 44.3497 197.694 58.8513 212.151 76.732 212.151C 94.6126 212.151 109.114 197.694 109.114 179.869C 109.114 165.212 99.3094 152.832 85.8835 148.894L 85.8835 76.0039C 85.8835 45.8971 57.021 21.4748 21.4709 21.4748ZM 62.6527 179.869C 62.6527 172.149 68.9884 165.903 76.732 165.903C 84.4756 165.903 90.8112 172.149 90.7408 179.939C 90.7408 187.659 84.4052 193.905 76.6616 193.905C 68.918 193.905 62.6527 187.589 62.6527 179.869Z"/>
<path id="path1_fill" fill-rule="evenodd" d="M 21.4709 21.4748L 0 21.4748L 1.35147e-05 66.5297C -1.31085e-05 96.6366 28.8625 121.059 64.4126 121.059L 67.5804 121.059L 67.5804 148.894C 54.1544 152.832 44.3497 165.212 44.3497 179.869C 44.3497 197.694 58.8513 212.151 76.732 212.151C 94.6126 212.151 109.114 197.694 109.114 179.869C 109.114 165.212 99.3095 152.832 85.8835 148.894L 85.8835 76.0039C 85.8834 45.8971 57.021 21.4748 21.4709 21.4748ZM 131.993 1.5301e-06C 109.959 -1.69303e-06 90.4592 9.40399 78.8438 23.7907C 94.4014 37.0545 104.116 55.5116 104.116 76.0039L 104.116 119.515C 132.415 113.76 153.464 92.2153 153.464 66.5297L 153.464 0L 131.993 1.5301e-06ZM 62.6527 179.869C 62.6527 172.149 68.9884 165.903 76.7319 165.903C 84.4755 165.903 90.8112 172.149 90.7408 179.939C 90.7408 187.659 84.4052 193.905 76.6615 193.905C 68.918 193.905 62.6527 187.589 62.6527 179.869Z"/>
</defs>
</svg>
